<svg width="271" height="45" viewBox="0 0 271 45" fill="none" xmlns="http://www.w3.org/2000/svg">
<rect width="271" height="45" fill="black"/>
<path d="M206.409 21.25L205.659 21.25L205.659 22.75L206.409 22.75L206.409 21.25ZM240.639 22.5303C240.932 22.2374 240.932 21.7626 240.639 21.4697L235.866 16.6967C235.573 16.4038 235.098 16.4038 234.805 16.6967C234.513 16.9896 234.513 17.4645 234.805 17.7574L239.048 22L234.805 26.2426C234.513 26.5355 234.513 27.0104 234.805 27.3033C235.098 27.5962 235.573 27.5962 235.866 27.3033L240.639 22.5303ZM206.409 22.75L240.109 22.75L240.109 21.25L206.409 21.25L206.409 22.75Z" fill="white"/>
<path d="M79.2954 24.64L79.7754 23.36H84.7354L85.2154 24.64H79.2954ZM82.2234 19.328L80.3354 23.776L80.2074 24.064L78.5434 28H77.0234L82.2234 16.24L87.4234 28H85.9034L84.2714 24.16L84.1434 23.84L82.2234 19.328ZM88.7859 16.8H90.1459V28H88.7859V16.8ZM92.1459 28H89.5379V26.64H92.1459C92.7752 26.64 93.3512 26.544 93.8739 26.352C94.3965 26.1493 94.8445 25.8667 95.2179 25.504C95.5912 25.1307 95.8792 24.6827 96.0819 24.16C96.2845 23.6373 96.3859 23.0507 96.3859 22.4C96.3859 21.7493 96.2845 21.1627 96.0819 20.64C95.8792 20.1173 95.5912 19.6747 95.2179 19.312C94.8445 18.9387 94.3965 18.656 93.8739 18.464C93.3512 18.2613 92.7752 18.16 92.1459 18.16H89.5379V16.8H92.1459C93.2339 16.8 94.1992 17.0347 95.0419 17.504C95.8845 17.9733 96.5459 18.6293 97.0259 19.472C97.5059 20.304 97.7459 21.28 97.7459 22.4C97.7459 23.52 97.5059 24.5013 97.0259 25.344C96.5459 26.176 95.8845 26.8267 95.0419 27.296C94.1992 27.7653 93.2339 28 92.1459 28ZM99.6609 16.8H101.021V28H99.6609V16.8ZM103.021 28H100.413V26.64H103.021C103.65 26.64 104.226 26.544 104.749 26.352C105.272 26.1493 105.72 25.8667 106.093 25.504C106.466 25.1307 106.754 24.6827 106.957 24.16C107.16 23.6373 107.261 23.0507 107.261 22.4C107.261 21.7493 107.16 21.1627 106.957 20.64C106.754 20.1173 106.466 19.6747 106.093 19.312C105.72 18.9387 105.272 18.656 104.749 18.464C104.226 18.2613 103.65 18.16 103.021 18.16H100.413V16.8H103.021C104.109 16.8 105.074 17.0347 105.917 17.504C106.76 17.9733 107.421 18.6293 107.901 19.472C108.381 20.304 108.621 21.28 108.621 22.4C108.621 23.52 108.381 24.5013 107.901 25.344C107.421 26.176 106.76 26.8267 105.917 27.296C105.074 27.7653 104.109 28 103.021 28ZM114.213 18.08V16.8H121.333V18.08H118.453V28H117.093V18.08H114.213ZM122.773 22.4C122.773 23.2427 122.955 23.9947 123.317 24.656C123.691 25.3173 124.197 25.84 124.837 26.224C125.477 26.608 126.203 26.8 127.013 26.8C127.835 26.8 128.56 26.608 129.189 26.224C129.829 25.84 130.331 25.3173 130.693 24.656C131.067 23.9947 131.253 23.2427 131.253 22.4C131.253 21.5573 131.067 20.8053 130.693 20.144C130.331 19.4827 129.829 18.96 129.189 18.576C128.56 18.192 127.835 18 127.013 18C126.203 18 125.477 18.192 124.837 18.576C124.197 18.96 123.691 19.4827 123.317 20.144C122.955 20.8053 122.773 21.5573 122.773 22.4ZM121.333 22.4C121.333 21.5787 121.472 20.8213 121.749 20.128C122.037 19.424 122.437 18.816 122.949 18.304C123.461 17.7813 124.064 17.376 124.757 17.088C125.451 16.7893 126.203 16.64 127.013 16.64C127.835 16.64 128.587 16.7893 129.269 17.088C129.963 17.376 130.565 17.7813 131.077 18.304C131.589 18.816 131.984 19.424 132.261 20.128C132.549 20.8213 132.693 21.5787 132.693 22.4C132.693 23.2107 132.549 23.968 132.261 24.672C131.984 25.376 131.589 25.9893 131.077 26.512C130.565 27.024 129.963 27.4293 129.269 27.728C128.587 28.016 127.835 28.16 127.013 28.16C126.203 28.16 125.451 28.016 124.757 27.728C124.064 27.4293 123.461 27.024 122.949 26.512C122.437 25.9893 122.037 25.376 121.749 24.672C121.472 23.968 121.333 23.2107 121.333 22.4ZM140.211 22.4C140.211 23.264 140.403 24.0267 140.787 24.688C141.182 25.3493 141.694 25.8667 142.323 26.24C142.952 26.6133 143.635 26.8 144.371 26.8C144.904 26.8 145.39 26.7307 145.827 26.592C146.275 26.4533 146.68 26.2613 147.043 26.016C147.406 25.76 147.715 25.4667 147.971 25.136V26.928C147.502 27.344 146.99 27.6533 146.435 27.856C145.88 28.0587 145.192 28.16 144.371 28.16C143.592 28.16 142.862 28.0213 142.179 27.744C141.507 27.456 140.915 27.056 140.403 26.544C139.891 26.0213 139.491 25.408 139.203 24.704C138.915 24 138.771 23.232 138.771 22.4C138.771 21.568 138.915 20.8 139.203 20.096C139.491 19.392 139.891 18.784 140.403 18.272C140.915 17.7493 141.507 17.3493 142.179 17.072C142.862 16.784 143.592 16.64 144.371 16.64C145.192 16.64 145.88 16.7413 146.435 16.944C146.99 17.1467 147.502 17.456 147.971 17.872V19.664C147.715 19.3333 147.406 19.0453 147.043 18.8C146.68 18.544 146.275 18.3467 145.827 18.208C145.39 18.0693 144.904 18 144.371 18C143.635 18 142.952 18.1867 142.323 18.56C141.694 18.9333 141.182 19.4507 140.787 20.112C140.403 20.7627 140.211 21.5253 140.211 22.4ZM151.202 24.64L151.682 23.36H156.642L157.122 24.64H151.202ZM154.13 19.328L152.242 23.776L152.114 24.064L150.45 28H148.93L154.13 16.24L159.33 28H157.81L156.178 24.16L156.05 23.84L154.13 19.328ZM162.692 22.48H164.212L168.212 28H166.532L162.692 22.48ZM160.692 16.8H162.052V28H160.692V16.8ZM161.444 18V16.8H163.732C164.457 16.8 165.103 16.9387 165.668 17.216C166.244 17.4827 166.697 17.8667 167.028 18.368C167.369 18.8693 167.54 19.4667 167.54 20.16C167.54 20.8427 167.369 21.44 167.028 21.952C166.697 22.4533 166.244 22.8427 165.668 23.12C165.103 23.3867 164.457 23.52 163.732 23.52H161.444V22.32H163.732C164.212 22.32 164.633 22.2347 164.996 22.064C165.369 21.8933 165.657 21.648 165.86 21.328C166.073 21.008 166.18 20.6187 166.18 20.16C166.18 19.7013 166.073 19.312 165.86 18.992C165.657 18.672 165.369 18.4267 164.996 18.256C164.633 18.0853 164.212 18 163.732 18H161.444ZM168.525 18.08V16.8H175.645V18.08H172.765V28H171.405V18.08H168.525Z" fill="white"/>
</svg>
