<svg width="271" height="65" viewBox="0 0 271 65" fill="none" xmlns="http://www.w3.org/2000/svg">
<rect x="0.25" y="24.2575" width="5.30714" height="39.9413" fill="#0D499F" stroke="black" stroke-width="0.5"/>
<rect x="135.75" y="24.6617" width="4.33929" height="39.1325" fill="black" stroke="black" stroke-width="0.5"/>
<rect x="0.25" y="24.2858" width="270.5" height="39.9413" stroke="black" stroke-width="0.5"/>
<path d="M17.646 43.34V42.494H19.68C20.1 42.494 20.478 42.422 20.814 42.278C21.15 42.134 21.414 41.924 21.606 41.648C21.798 41.372 21.894 41.036 21.894 40.64C21.894 40.04 21.684 39.578 21.264 39.254C20.844 38.918 20.316 38.75 19.68 38.75H17.97V48.65H19.86C20.4 48.65 20.874 48.554 21.282 48.362C21.702 48.17 22.026 47.894 22.254 47.534C22.494 47.174 22.614 46.736 22.614 46.22C22.614 45.836 22.548 45.494 22.416 45.194C22.284 44.894 22.092 44.642 21.84 44.438C21.6 44.234 21.312 44.084 20.976 43.988C20.64 43.88 20.268 43.826 19.86 43.826H17.646V42.98H19.86C20.472 42.98 21.036 43.046 21.552 43.178C22.068 43.31 22.518 43.514 22.902 43.79C23.298 44.054 23.604 44.396 23.82 44.816C24.036 45.236 24.144 45.734 24.144 46.31C24.144 47.138 23.952 47.828 23.568 48.38C23.196 48.92 22.686 49.328 22.038 49.604C21.402 49.868 20.676 50 19.86 50H16.44V37.4H19.68C20.436 37.4 21.09 37.514 21.642 37.742C22.206 37.97 22.644 38.318 22.956 38.786C23.268 39.242 23.424 39.83 23.424 40.55C23.424 41.138 23.268 41.642 22.956 42.062C22.644 42.482 22.206 42.8 21.642 43.016C21.09 43.232 20.436 43.34 19.68 43.34H17.646ZM26.0271 35.96H27.4671V50H26.0271V35.96ZM31.2555 46.76C31.2555 47.42 31.4055 47.93 31.7055 48.29C32.0055 48.65 32.4435 48.83 33.0195 48.83C33.4395 48.83 33.8055 48.746 34.1175 48.578C34.4415 48.398 34.6875 48.152 34.8555 47.84C35.0355 47.528 35.1255 47.168 35.1255 46.76V41.72H36.5655V50H35.1255V48.704C34.8495 49.196 34.5075 49.568 34.0995 49.82C33.6915 50.06 33.2115 50.18 32.6595 50.18C31.7955 50.18 31.1055 49.886 30.5895 49.298C30.0735 48.71 29.8155 47.924 29.8155 46.94V41.72H31.2555V46.76ZM42.1166 50.18C41.3486 50.18 40.6646 50 40.0646 49.64C39.4766 49.268 39.0146 48.758 38.6786 48.11C38.3546 47.462 38.1926 46.712 38.1926 45.86C38.1926 44.996 38.3606 44.24 38.6966 43.592C39.0446 42.944 39.5246 42.44 40.1366 42.08C40.7606 41.72 41.4806 41.54 42.2966 41.54C43.1126 41.54 43.8086 41.714 44.3846 42.062C44.9726 42.398 45.4226 42.884 45.7346 43.52C46.0466 44.156 46.2026 44.912 46.2026 45.788C46.2026 45.872 46.1966 45.962 46.1846 46.058C46.1846 46.142 46.1846 46.196 46.1846 46.22H39.1106V44.996H45.0506L44.4746 45.824C44.5106 45.764 44.5466 45.674 44.5826 45.554C44.6186 45.422 44.6366 45.314 44.6366 45.23C44.6366 44.738 44.5346 44.312 44.3306 43.952C44.1386 43.592 43.8686 43.31 43.5206 43.106C43.1726 42.902 42.7646 42.8 42.2966 42.8C41.7446 42.8 41.2706 42.92 40.8746 43.16C40.4906 43.388 40.1906 43.724 39.9746 44.168C39.7706 44.6 39.6626 45.134 39.6506 45.77C39.6506 46.418 39.7526 46.97 39.9566 47.426C40.1606 47.882 40.4606 48.23 40.8566 48.47C41.2526 48.71 41.7326 48.83 42.2966 48.83C42.8606 48.83 43.3586 48.71 43.7906 48.47C44.2226 48.218 44.5886 47.84 44.8886 47.336L46.0586 48.074C45.6266 48.77 45.0806 49.298 44.4206 49.658C43.7726 50.006 43.0046 50.18 42.1166 50.18Z" fill="black"/>
<path d="M151.646 43.34V42.494H153.68C154.1 42.494 154.478 42.422 154.814 42.278C155.15 42.134 155.414 41.924 155.606 41.648C155.798 41.372 155.894 41.036 155.894 40.64C155.894 40.04 155.684 39.578 155.264 39.254C154.844 38.918 154.316 38.75 153.68 38.75H151.97V48.65H153.86C154.4 48.65 154.874 48.554 155.282 48.362C155.702 48.17 156.026 47.894 156.254 47.534C156.494 47.174 156.614 46.736 156.614 46.22C156.614 45.836 156.548 45.494 156.416 45.194C156.284 44.894 156.092 44.642 155.84 44.438C155.6 44.234 155.312 44.084 154.976 43.988C154.64 43.88 154.268 43.826 153.86 43.826H151.646V42.98H153.86C154.472 42.98 155.036 43.046 155.552 43.178C156.068 43.31 156.518 43.514 156.902 43.79C157.298 44.054 157.604 44.396 157.82 44.816C158.036 45.236 158.144 45.734 158.144 46.31C158.144 47.138 157.952 47.828 157.568 48.38C157.196 48.92 156.686 49.328 156.038 49.604C155.402 49.868 154.676 50 153.86 50H150.44V37.4H153.68C154.436 37.4 155.09 37.514 155.642 37.742C156.206 37.97 156.644 38.318 156.956 38.786C157.268 39.242 157.424 39.83 157.424 40.55C157.424 41.138 157.268 41.642 156.956 42.062C156.644 42.482 156.206 42.8 155.642 43.016C155.09 43.232 154.436 43.34 153.68 43.34H151.646ZM160.027 35.96H161.467V50H160.027V35.96ZM164.464 47.444C164.464 47.756 164.536 48.026 164.68 48.254C164.836 48.482 165.046 48.656 165.31 48.776C165.586 48.884 165.898 48.938 166.246 48.938C166.69 48.938 167.086 48.848 167.434 48.668C167.794 48.488 168.076 48.236 168.28 47.912C168.496 47.576 168.604 47.192 168.604 46.76L168.892 47.84C168.892 48.368 168.73 48.806 168.406 49.154C168.094 49.502 167.704 49.76 167.236 49.928C166.78 50.096 166.324 50.18 165.868 50.18C165.364 50.18 164.89 50.078 164.446 49.874C164.014 49.658 163.666 49.352 163.402 48.956C163.138 48.56 163.006 48.08 163.006 47.516C163.006 46.712 163.288 46.07 163.852 45.59C164.428 45.098 165.226 44.852 166.246 44.852C166.846 44.852 167.344 44.924 167.74 45.068C168.148 45.2 168.472 45.356 168.712 45.536C168.952 45.704 169.114 45.842 169.198 45.95V46.796C168.778 46.508 168.346 46.304 167.902 46.184C167.458 46.052 166.984 45.986 166.48 45.986C166.012 45.986 165.628 46.046 165.328 46.166C165.04 46.286 164.824 46.454 164.68 46.67C164.536 46.886 164.464 47.144 164.464 47.444ZM164.248 43.628L163.546 42.566C163.858 42.338 164.284 42.11 164.824 41.882C165.376 41.654 166.036 41.54 166.804 41.54C167.452 41.54 168.016 41.642 168.496 41.846C168.988 42.038 169.366 42.32 169.63 42.692C169.906 43.064 170.044 43.52 170.044 44.06V50H168.604V44.258C168.604 43.97 168.556 43.736 168.46 43.556C168.364 43.364 168.226 43.214 168.046 43.106C167.878 42.998 167.68 42.92 167.452 42.872C167.224 42.824 166.984 42.8 166.732 42.8C166.324 42.8 165.952 42.848 165.616 42.944C165.292 43.04 165.016 43.154 164.788 43.286C164.56 43.418 164.38 43.532 164.248 43.628ZM172.77 45.86C172.77 46.436 172.89 46.946 173.13 47.39C173.382 47.834 173.718 48.188 174.138 48.452C174.57 48.704 175.056 48.83 175.596 48.83C176.04 48.83 176.454 48.764 176.838 48.632C177.234 48.488 177.576 48.302 177.864 48.074C178.152 47.834 178.356 47.582 178.476 47.318V49.118C178.188 49.454 177.774 49.718 177.234 49.91C176.706 50.09 176.16 50.18 175.596 50.18C174.792 50.18 174.066 49.994 173.418 49.622C172.77 49.25 172.254 48.74 171.87 48.092C171.498 47.432 171.312 46.688 171.312 45.86C171.312 45.02 171.498 44.276 171.87 43.628C172.254 42.98 172.77 42.47 173.418 42.098C174.066 41.726 174.792 41.54 175.596 41.54C176.16 41.54 176.706 41.636 177.234 41.828C177.774 42.008 178.188 42.266 178.476 42.602V44.402C178.356 44.126 178.152 43.874 177.864 43.646C177.576 43.418 177.234 43.238 176.838 43.106C176.454 42.962 176.04 42.89 175.596 42.89C175.056 42.89 174.57 43.016 174.138 43.268C173.718 43.52 173.382 43.874 173.13 44.33C172.89 44.774 172.77 45.284 172.77 45.86ZM180.267 35.96H181.707V50H180.267V35.96ZM184.767 41.72H186.567L182.967 45.14L186.927 50H185.127L181.167 45.14L184.767 41.72Z" fill="black"/>
<path d="M1.82 9.1C1.82 9.856 1.988 10.5233 2.324 11.102C2.66933 11.6807 3.11733 12.1333 3.668 12.46C4.21867 12.7867 4.816 12.95 5.46 12.95C5.92667 12.95 6.35133 12.8893 6.734 12.768C7.126 12.6467 7.48067 12.4787 7.798 12.264C8.11533 12.04 8.386 11.7833 8.61 11.494V13.062C8.19933 13.426 7.75133 13.6967 7.266 13.874C6.78067 14.0513 6.17867 14.14 5.46 14.14C4.77867 14.14 4.13933 14.0187 3.542 13.776C2.954 13.524 2.436 13.174 1.988 12.726C1.54 12.2687 1.19 11.732 0.938 11.116C0.686 10.5 0.56 9.828 0.56 9.1C0.56 8.372 0.686 7.7 0.938 7.084C1.19 6.468 1.54 5.936 1.988 5.488C2.436 5.03067 2.954 4.68067 3.542 4.438C4.13933 4.186 4.77867 4.06 5.46 4.06C6.17867 4.06 6.78067 4.14867 7.266 4.326C7.75133 4.50333 8.19933 4.774 8.61 5.138V6.706C8.386 6.41667 8.11533 6.16467 7.798 5.95C7.48067 5.726 7.126 5.55333 6.734 5.432C6.35133 5.31067 5.92667 5.25 5.46 5.25C4.816 5.25 4.21867 5.41333 3.668 5.74C3.11733 6.06667 2.66933 6.51933 2.324 7.098C1.988 7.66733 1.82 8.33467 1.82 9.1ZM10.074 10.78C10.074 10.1267 10.2187 9.548 10.508 9.044C10.8067 8.54 11.208 8.14333 11.712 7.854C12.216 7.56467 12.7807 7.42 13.406 7.42C14.0407 7.42 14.6053 7.56467 15.1 7.854C15.604 8.14333 16.0007 8.54 16.29 9.044C16.5887 9.548 16.738 10.1267 16.738 10.78C16.738 11.424 16.5887 12.0027 16.29 12.516C16.0007 13.02 15.604 13.4167 15.1 13.706C14.6053 13.9953 14.0407 14.14 13.406 14.14C12.7807 14.14 12.216 13.9953 11.712 13.706C11.208 13.4167 10.8067 13.02 10.508 12.516C10.2187 12.0027 10.074 11.424 10.074 10.78ZM11.208 10.78C11.208 11.228 11.3013 11.6247 11.488 11.97C11.684 12.3153 11.9453 12.5907 12.272 12.796C12.608 12.992 12.986 13.09 13.406 13.09C13.826 13.09 14.1993 12.992 14.526 12.796C14.862 12.5907 15.1233 12.3153 15.31 11.97C15.506 11.6247 15.604 11.228 15.604 10.78C15.604 10.332 15.506 9.93533 15.31 9.59C15.1233 9.23533 14.862 8.96 14.526 8.764C14.1993 8.568 13.826 8.47 13.406 8.47C12.986 8.47 12.608 8.568 12.272 8.764C11.9453 8.96 11.684 9.23533 11.488 9.59C11.3013 9.93533 11.208 10.332 11.208 10.78ZM18.2766 3.08H19.3966V14H18.2766V3.08ZM20.9431 10.78C20.9431 10.1267 21.0878 9.548 21.3771 9.044C21.6758 8.54 22.0771 8.14333 22.5811 7.854C23.0851 7.56467 23.6498 7.42 24.2751 7.42C24.9098 7.42 25.4745 7.56467 25.9691 7.854C26.4731 8.14333 26.8698 8.54 27.1591 9.044C27.4578 9.548 27.6071 10.1267 27.6071 10.78C27.6071 11.424 27.4578 12.0027 27.1591 12.516C26.8698 13.02 26.4731 13.4167 25.9691 13.706C25.4745 13.9953 24.9098 14.14 24.2751 14.14C23.6498 14.14 23.0851 13.9953 22.5811 13.706C22.0771 13.4167 21.6758 13.02 21.3771 12.516C21.0878 12.0027 20.9431 11.424 20.9431 10.78ZM22.0771 10.78C22.0771 11.228 22.1705 11.6247 22.3571 11.97C22.5531 12.3153 22.8145 12.5907 23.1411 12.796C23.4771 12.992 23.8551 13.09 24.2751 13.09C24.6951 13.09 25.0685 12.992 25.3951 12.796C25.7311 12.5907 25.9925 12.3153 26.1791 11.97C26.3751 11.6247 26.4731 11.228 26.4731 10.78C26.4731 10.332 26.3751 9.93533 26.1791 9.59C25.9925 9.23533 25.7311 8.96 25.3951 8.764C25.0685 8.568 24.6951 8.47 24.2751 8.47C23.8551 8.47 23.4771 8.568 23.1411 8.764C22.8145 8.96 22.5531 9.23533 22.3571 9.59C22.1705 9.93533 22.0771 10.332 22.0771 10.78ZM30.2657 7.56V14H29.1457V7.56H30.2657ZM32.2117 8.792C32.0624 8.68 31.927 8.60067 31.8057 8.554C31.6844 8.498 31.5304 8.47 31.3437 8.47C31.0637 8.47 30.8444 8.54 30.6857 8.68C30.527 8.82 30.415 9.01133 30.3497 9.254C30.2937 9.49667 30.2657 9.772 30.2657 10.08H29.7617C29.7617 9.56667 29.8504 9.114 30.0277 8.722C30.2144 8.32067 30.4524 8.00333 30.7417 7.77C31.031 7.53667 31.325 7.42 31.6237 7.42C31.857 7.42 32.0717 7.45267 32.2677 7.518C32.473 7.574 32.6597 7.69067 32.8277 7.868L32.2117 8.792Z" fill="#333333"/>
</svg>
