<svg width="271" height="65" viewBox="0 0 271 65" fill="none" xmlns="http://www.w3.org/2000/svg">
<rect x="0.25" y="24.5966" width="270.5" height="39.94" stroke="black" stroke-width="0.5"/>
<line x1="216.25" y1="24.537" x2="216.25" y2="64.266" stroke="black" stroke-width="0.5"/>
<path d="M15.08 45.4C15.08 46.264 15.272 47.0267 15.656 47.688C16.0507 48.3493 16.5627 48.8667 17.192 49.24C17.8213 49.6133 18.504 49.8 19.24 49.8C19.7733 49.8 20.2587 49.7307 20.696 49.592C21.144 49.4533 21.5493 49.2613 21.912 49.016C22.2747 48.76 22.584 48.4667 22.84 48.136V49.928C22.3707 50.344 21.8587 50.6533 21.304 50.856C20.7493 51.0587 20.0613 51.16 19.24 51.16C18.4613 51.16 17.7307 51.0213 17.048 50.744C16.376 50.456 15.784 50.056 15.272 49.544C14.76 49.0213 14.36 48.408 14.072 47.704C13.784 47 13.64 46.232 13.64 45.4C13.64 44.568 13.784 43.8 14.072 43.096C14.36 42.392 14.76 41.784 15.272 41.272C15.784 40.7493 16.376 40.3493 17.048 40.072C17.7307 39.784 18.4613 39.64 19.24 39.64C20.0613 39.64 20.7493 39.7413 21.304 39.944C21.8587 40.1467 22.3707 40.456 22.84 40.872V42.664C22.584 42.3333 22.2747 42.0453 21.912 41.8C21.5493 41.544 21.144 41.3467 20.696 41.208C20.2587 41.0693 19.7733 41 19.24 41C18.504 41 17.8213 41.1867 17.192 41.56C16.5627 41.9333 16.0507 42.4507 15.656 43.112C15.272 43.7627 15.08 44.5253 15.08 45.4ZM26.1131 38.52V51H24.8331V38.52H26.1131ZM29.5531 46.52C29.5531 45.912 29.4198 45.4533 29.1531 45.144C28.8971 44.8347 28.5078 44.68 27.9851 44.68C27.6118 44.68 27.2811 44.76 26.9931 44.92C26.7158 45.08 26.4971 45.2987 26.3371 45.576C26.1878 45.8533 26.1131 46.168 26.1131 46.52H25.6971C25.6971 45.9333 25.8091 45.416 26.0331 44.968C26.2571 44.5093 26.5611 44.1467 26.9451 43.88C27.3398 43.6133 27.7931 43.48 28.3051 43.48C28.8171 43.48 29.2598 43.5867 29.6331 43.8C30.0171 44.0133 30.3105 44.3333 30.5131 44.76C30.7265 45.1867 30.8331 45.72 30.8331 46.36V51H29.5531V46.52ZM32.2794 47.32C32.2794 46.5733 32.4447 45.912 32.7754 45.336C33.1167 44.76 33.5754 44.3067 34.1514 43.976C34.7274 43.6453 35.3727 43.48 36.0874 43.48C36.8127 43.48 37.458 43.6453 38.0234 43.976C38.5994 44.3067 39.0527 44.76 39.3834 45.336C39.7247 45.912 39.8954 46.5733 39.8954 47.32C39.8954 48.056 39.7247 48.7173 39.3834 49.304C39.0527 49.88 38.5994 50.3333 38.0234 50.664C37.458 50.9947 36.8127 51.16 36.0874 51.16C35.3727 51.16 34.7274 50.9947 34.1514 50.664C33.5754 50.3333 33.1167 49.88 32.7754 49.304C32.4447 48.7173 32.2794 48.056 32.2794 47.32ZM33.5754 47.32C33.5754 47.832 33.682 48.2853 33.8954 48.68C34.1194 49.0747 34.418 49.3893 34.7914 49.624C35.1754 49.848 35.6074 49.96 36.0874 49.96C36.5674 49.96 36.994 49.848 37.3674 49.624C37.7514 49.3893 38.05 49.0747 38.2634 48.68C38.4874 48.2853 38.5994 47.832 38.5994 47.32C38.5994 46.808 38.4874 46.3547 38.2634 45.96C38.05 45.5547 37.7514 45.24 37.3674 45.016C36.994 44.792 36.5674 44.68 36.0874 44.68C35.6074 44.68 35.1754 44.792 34.7914 45.016C34.418 45.24 34.1194 45.5547 33.8954 45.96C33.682 46.3547 33.5754 46.808 33.5754 47.32ZM40.6938 47.32C40.6938 46.5733 40.8591 45.912 41.1898 45.336C41.5311 44.76 41.9898 44.3067 42.5658 43.976C43.1418 43.6453 43.7871 43.48 44.5018 43.48C45.2271 43.48 45.8724 43.6453 46.4378 43.976C47.0138 44.3067 47.4671 44.76 47.7978 45.336C48.1391 45.912 48.3098 46.5733 48.3098 47.32C48.3098 48.056 48.1391 48.7173 47.7978 49.304C47.4671 49.88 47.0138 50.3333 46.4378 50.664C45.8724 50.9947 45.2271 51.16 44.5018 51.16C43.7871 51.16 43.1418 50.9947 42.5658 50.664C41.9898 50.3333 41.5311 49.88 41.1898 49.304C40.8591 48.7173 40.6938 48.056 40.6938 47.32ZM41.9898 47.32C41.9898 47.832 42.0964 48.2853 42.3098 48.68C42.5338 49.0747 42.8324 49.3893 43.2058 49.624C43.5898 49.848 44.0218 49.96 44.5018 49.96C44.9818 49.96 45.4084 49.848 45.7818 49.624C46.1658 49.3893 46.4644 49.0747 46.6778 48.68C46.9018 48.2853 47.0138 47.832 47.0138 47.32C47.0138 46.808 46.9018 46.3547 46.6778 45.96C46.4644 45.5547 46.1658 45.24 45.7818 45.016C45.4084 44.792 44.9818 44.68 44.5018 44.68C44.0218 44.68 43.5898 44.792 43.2058 45.016C42.8324 45.24 42.5338 45.5547 42.3098 45.96C42.0964 46.3547 41.9898 46.808 41.9898 47.32ZM50.0521 48.744C50.2015 48.968 50.3721 49.176 50.5641 49.368C50.7561 49.56 50.9748 49.7147 51.2201 49.832C51.4761 49.9387 51.7535 49.992 52.0521 49.992C52.4148 49.992 52.6975 49.912 52.9001 49.752C53.1135 49.5813 53.2201 49.352 53.2201 49.064C53.2201 48.808 53.1348 48.5947 52.9641 48.424C52.8041 48.2427 52.5961 48.0933 52.3401 47.976C52.0841 47.848 51.8121 47.7307 51.5241 47.624C51.2041 47.496 50.8788 47.3467 50.5481 47.176C50.2281 46.9947 49.9561 46.7653 49.7321 46.488C49.5188 46.2 49.4121 45.8427 49.4121 45.416C49.4121 44.9787 49.5241 44.616 49.7481 44.328C49.9828 44.04 50.2815 43.8267 50.6441 43.688C51.0175 43.5493 51.4015 43.48 51.7961 43.48C52.1908 43.48 52.5588 43.544 52.9001 43.672C53.2521 43.8 53.5615 43.9707 53.8281 44.184C54.0948 44.3973 54.3028 44.6427 54.4521 44.92L53.4281 45.576C53.2255 45.2987 52.9695 45.0693 52.6601 44.888C52.3615 44.7067 52.0201 44.616 51.6361 44.616C51.3695 44.616 51.1401 44.6747 50.9481 44.792C50.7561 44.9093 50.6601 45.0907 50.6601 45.336C50.6601 45.528 50.7348 45.6987 50.8841 45.848C51.0335 45.9973 51.2255 46.1307 51.4601 46.248C51.6948 46.3653 51.9401 46.4773 52.1961 46.584C52.6228 46.7547 53.0121 46.9413 53.3641 47.144C53.7161 47.336 53.9935 47.5707 54.1961 47.848C54.4095 48.1253 54.5161 48.4827 54.5161 48.92C54.5161 49.56 54.2815 50.0933 53.8121 50.52C53.3535 50.9467 52.7455 51.16 51.9881 51.16C51.4975 51.16 51.0548 51.0747 50.6601 50.904C50.2655 50.7227 49.9295 50.4933 49.6521 50.216C49.3855 49.9387 49.1828 49.656 49.0441 49.368L50.0521 48.744ZM58.7293 51.16C58.0466 51.16 57.4386 51 56.9053 50.68C56.3826 50.3493 55.9719 49.896 55.6733 49.32C55.3853 48.744 55.2413 48.0773 55.2413 47.32C55.2413 46.552 55.3906 45.88 55.6893 45.304C55.9986 44.728 56.4253 44.28 56.9693 43.96C57.5239 43.64 58.1639 43.48 58.8893 43.48C59.6146 43.48 60.2333 43.6347 60.7453 43.944C61.2679 44.2427 61.6679 44.6747 61.9453 45.24C62.2226 45.8053 62.3613 46.4773 62.3613 47.256C62.3613 47.3307 62.3559 47.4107 62.3453 47.496C62.3453 47.5707 62.3453 47.6187 62.3453 47.64H56.0573V46.552H61.3373L60.8253 47.288C60.8573 47.2347 60.8893 47.1547 60.9213 47.048C60.9533 46.9307 60.9693 46.8347 60.9693 46.76C60.9693 46.3227 60.8786 45.944 60.6973 45.624C60.5266 45.304 60.2866 45.0533 59.9773 44.872C59.6679 44.6907 59.3053 44.6 58.8893 44.6C58.3986 44.6 57.9773 44.7067 57.6253 44.92C57.2839 45.1227 57.0173 45.4213 56.8253 45.816C56.6439 46.2 56.5479 46.6747 56.5373 47.24C56.5373 47.816 56.6279 48.3067 56.8093 48.712C56.9906 49.1173 57.2573 49.4267 57.6093 49.64C57.9613 49.8533 58.3879 49.96 58.8893 49.96C59.3906 49.96 59.8333 49.8533 60.2173 49.64C60.6013 49.416 60.9266 49.08 61.1933 48.632L62.2333 49.288C61.8493 49.9067 61.3639 50.376 60.7773 50.696C60.2013 51.0053 59.5186 51.16 58.7293 51.16ZM74.1125 43.64L69.3125 54.52H67.8725L69.8885 49.96L67.0725 43.64H68.5925L70.9285 49.4L70.4005 49.336L72.6725 43.64H74.1125ZM74.125 47.32C74.125 46.5733 74.2903 45.912 74.621 45.336C74.9623 44.76 75.421 44.3067 75.997 43.976C76.573 43.6453 77.2183 43.48 77.933 43.48C78.6583 43.48 79.3037 43.6453 79.869 43.976C80.445 44.3067 80.8983 44.76 81.229 45.336C81.5703 45.912 81.741 46.5733 81.741 47.32C81.741 48.056 81.5703 48.7173 81.229 49.304C80.8983 49.88 80.445 50.3333 79.869 50.664C79.3037 50.9947 78.6583 51.16 77.933 51.16C77.2183 51.16 76.573 50.9947 75.997 50.664C75.421 50.3333 74.9623 49.88 74.621 49.304C74.2903 48.7173 74.125 48.056 74.125 47.32ZM75.421 47.32C75.421 47.832 75.5277 48.2853 75.741 48.68C75.965 49.0747 76.2637 49.3893 76.637 49.624C77.021 49.848 77.453 49.96 77.933 49.96C78.413 49.96 78.8397 49.848 79.213 49.624C79.597 49.3893 79.8957 49.0747 80.109 48.68C80.333 48.2853 80.445 47.832 80.445 47.32C80.445 46.808 80.333 46.3547 80.109 45.96C79.8957 45.5547 79.597 45.24 79.213 45.016C78.8397 44.792 78.413 44.68 77.933 44.68C77.453 44.68 77.021 44.792 76.637 45.016C76.2637 45.24 75.965 45.5547 75.741 45.96C75.5277 46.3547 75.421 46.808 75.421 47.32ZM84.4594 48.12C84.4594 48.7067 84.5927 49.16 84.8594 49.48C85.126 49.8 85.5154 49.96 86.0274 49.96C86.4007 49.96 86.726 49.8853 87.0034 49.736C87.2914 49.576 87.51 49.3573 87.6594 49.08C87.8194 48.8027 87.8994 48.4827 87.8994 48.12V43.64H89.1794V51H87.8994V49.848C87.654 50.2853 87.35 50.616 86.9874 50.84C86.6247 51.0533 86.198 51.16 85.7074 51.16C84.9394 51.16 84.326 50.8987 83.8674 50.376C83.4087 49.8533 83.1794 49.1547 83.1794 48.28V43.64H84.4594V48.12ZM92.5456 43.64V51H91.2656V43.64H92.5456ZM94.7696 45.048C94.599 44.92 94.4443 44.8293 94.3056 44.776C94.167 44.712 93.991 44.68 93.7776 44.68C93.4576 44.68 93.207 44.76 93.0256 44.92C92.8443 45.08 92.7163 45.2987 92.6416 45.576C92.5776 45.8533 92.5456 46.168 92.5456 46.52H91.9696C91.9696 45.9333 92.071 45.416 92.2736 44.968C92.487 44.5093 92.759 44.1467 93.0896 43.88C93.4203 43.6133 93.7563 43.48 94.0976 43.48C94.3643 43.48 94.6096 43.5173 94.8336 43.592C95.0683 43.656 95.2816 43.7893 95.4736 43.992L94.7696 45.048ZM101.211 48.744C101.36 48.968 101.531 49.176 101.723 49.368C101.915 49.56 102.134 49.7147 102.379 49.832C102.635 49.9387 102.912 49.992 103.211 49.992C103.574 49.992 103.856 49.912 104.059 49.752C104.272 49.5813 104.379 49.352 104.379 49.064C104.379 48.808 104.294 48.5947 104.123 48.424C103.963 48.2427 103.755 48.0933 103.499 47.976C103.243 47.848 102.971 47.7307 102.683 47.624C102.363 47.496 102.038 47.3467 101.707 47.176C101.387 46.9947 101.115 46.7653 100.891 46.488C100.678 46.2 100.571 45.8427 100.571 45.416C100.571 44.9787 100.683 44.616 100.907 44.328C101.142 44.04 101.44 43.8267 101.803 43.688C102.176 43.5493 102.56 43.48 102.955 43.48C103.35 43.48 103.718 43.544 104.059 43.672C104.411 43.8 104.72 43.9707 104.987 44.184C105.254 44.3973 105.462 44.6427 105.611 44.92L104.587 45.576C104.384 45.2987 104.128 45.0693 103.819 44.888C103.52 44.7067 103.179 44.616 102.795 44.616C102.528 44.616 102.299 44.6747 102.107 44.792C101.915 44.9093 101.819 45.0907 101.819 45.336C101.819 45.528 101.894 45.6987 102.043 45.848C102.192 45.9973 102.384 46.1307 102.619 46.248C102.854 46.3653 103.099 46.4773 103.355 46.584C103.782 46.7547 104.171 46.9413 104.523 47.144C104.875 47.336 105.152 47.5707 105.355 47.848C105.568 48.1253 105.675 48.4827 105.675 48.92C105.675 49.56 105.44 50.0933 104.971 50.52C104.512 50.9467 103.904 51.16 103.147 51.16C102.656 51.16 102.214 51.0747 101.819 50.904C101.424 50.7227 101.088 50.4933 100.811 50.216C100.544 49.9387 100.342 49.656 100.203 49.368L101.211 48.744ZM107.04 40.6C107.04 40.3547 107.125 40.1467 107.296 39.976C107.477 39.8053 107.685 39.72 107.92 39.72C108.165 39.72 108.373 39.8053 108.544 39.976C108.715 40.1467 108.8 40.3547 108.8 40.6C108.8 40.8347 108.715 41.0427 108.544 41.224C108.373 41.3947 108.165 41.48 107.92 41.48C107.685 41.48 107.477 41.3947 107.296 41.224C107.125 41.0427 107.04 40.8347 107.04 40.6ZM107.28 43.64H108.56V51H107.28V43.64ZM114.476 44.84H110.396V43.64H116.796L112.236 49.8H116.476V51H109.916L114.476 44.84ZM120.529 51.16C119.847 51.16 119.239 51 118.705 50.68C118.183 50.3493 117.772 49.896 117.473 49.32C117.185 48.744 117.041 48.0773 117.041 47.32C117.041 46.552 117.191 45.88 117.489 45.304C117.799 44.728 118.225 44.28 118.769 43.96C119.324 43.64 119.964 43.48 120.689 43.48C121.415 43.48 122.033 43.6347 122.545 43.944C123.068 44.2427 123.468 44.6747 123.745 45.24C124.023 45.8053 124.161 46.4773 124.161 47.256C124.161 47.3307 124.156 47.4107 124.145 47.496C124.145 47.5707 124.145 47.6187 124.145 47.64H117.857V46.552H123.137L122.625 47.288C122.657 47.2347 122.689 47.1547 122.721 47.048C122.753 46.9307 122.769 46.8347 122.769 46.76C122.769 46.3227 122.679 45.944 122.497 45.624C122.327 45.304 122.087 45.0533 121.777 44.872C121.468 44.6907 121.105 44.6 120.689 44.6C120.199 44.6 119.777 44.7067 119.425 44.92C119.084 45.1227 118.817 45.4213 118.625 45.816C118.444 46.2 118.348 46.6747 118.337 47.24C118.337 47.816 118.428 48.3067 118.609 48.712C118.791 49.1173 119.057 49.4267 119.409 49.64C119.761 49.8533 120.188 49.96 120.689 49.96C121.191 49.96 121.633 49.8533 122.017 49.64C122.401 49.416 122.727 49.08 122.993 48.632L124.033 49.288C123.649 49.9067 123.164 50.376 122.577 50.696C122.001 51.0053 121.319 51.16 120.529 51.16Z" fill="black"/>
<path d="M1.484 11.032C1.708 11.424 1.94133 11.7693 2.184 12.068C2.436 12.3667 2.716 12.6 3.024 12.768C3.332 12.936 3.682 13.02 4.074 13.02C4.59667 13.02 5.01667 12.8753 5.334 12.586C5.65133 12.2967 5.81 11.928 5.81 11.48C5.81 11.0413 5.70733 10.6913 5.502 10.43C5.29667 10.1687 5.026 9.95867 4.69 9.8C4.36333 9.632 4.01333 9.48267 3.64 9.352C3.39733 9.268 3.12667 9.16067 2.828 9.03C2.52933 8.89 2.24467 8.71733 1.974 8.512C1.70333 8.29733 1.47933 8.036 1.302 7.728C1.134 7.42 1.05 7.042 1.05 6.594C1.05 6.10867 1.17133 5.67467 1.414 5.292C1.65667 4.90933 1.99267 4.61067 2.422 4.396C2.85133 4.172 3.34133 4.06 3.892 4.06C4.424 4.06 4.886 4.16267 5.278 4.368C5.67933 4.564 6.02 4.82067 6.3 5.138C6.58 5.446 6.79933 5.77267 6.958 6.118L5.936 6.706C5.81467 6.46333 5.66067 6.22533 5.474 5.992C5.28733 5.75867 5.05867 5.56733 4.788 5.418C4.52667 5.26867 4.20467 5.194 3.822 5.194C3.29 5.194 2.90267 5.32467 2.66 5.586C2.41733 5.838 2.296 6.12267 2.296 6.44C2.296 6.71067 2.366 6.96267 2.506 7.196C2.646 7.42 2.87933 7.63467 3.206 7.84C3.542 8.036 3.99467 8.232 4.564 8.428C4.82533 8.52133 5.10067 8.64267 5.39 8.792C5.67933 8.94133 5.94533 9.13267 6.188 9.366C6.44 9.59 6.64533 9.86533 6.804 10.192C6.96267 10.5093 7.042 10.892 7.042 11.34C7.042 11.7693 6.958 12.1567 6.79 12.502C6.63133 12.8473 6.40733 13.1413 6.118 13.384C5.838 13.6267 5.516 13.8133 5.152 13.944C4.79733 14.0747 4.424 14.14 4.032 14.14C3.5 14.14 3.00533 14.028 2.548 13.804C2.1 13.5707 1.70333 13.2673 1.358 12.894C1.022 12.5113 0.746667 12.1053 0.532 11.676L1.484 11.032ZM8.71992 4.9C8.71992 4.68533 8.79459 4.50333 8.94392 4.354C9.10259 4.20467 9.28459 4.13 9.48992 4.13C9.70459 4.13 9.88659 4.20467 10.0359 4.354C10.1853 4.50333 10.2599 4.68533 10.2599 4.9C10.2599 5.10533 10.1853 5.28733 10.0359 5.446C9.88659 5.59533 9.70459 5.67 9.48992 5.67C9.28459 5.67 9.10259 5.59533 8.94392 5.446C8.79459 5.28733 8.71992 5.10533 8.71992 4.9ZM8.92992 7.56H10.0499V14H8.92992V7.56ZM15.5066 8.61H11.9366V7.56H17.5366L13.5466 12.95H17.2566V14H11.5166L15.5066 8.61ZM21.083 14.14C20.4857 14.14 19.9537 14 19.487 13.72C19.0297 13.4307 18.6703 13.034 18.409 12.53C18.157 12.026 18.031 11.4427 18.031 10.78C18.031 10.108 18.1617 9.52 18.423 9.016C18.6937 8.512 19.067 8.12 19.543 7.84C20.0283 7.56 20.5883 7.42 21.223 7.42C21.8577 7.42 22.399 7.55533 22.847 7.826C23.3043 8.08733 23.6543 8.46533 23.897 8.96C24.1397 9.45467 24.261 10.0427 24.261 10.724C24.261 10.7893 24.2563 10.8593 24.247 10.934C24.247 10.9993 24.247 11.0413 24.247 11.06H18.745V10.108H23.365L22.917 10.752C22.945 10.7053 22.973 10.6353 23.001 10.542C23.029 10.4393 23.043 10.3553 23.043 10.29C23.043 9.90733 22.9637 9.576 22.805 9.296C22.6557 9.016 22.4457 8.79667 22.175 8.638C21.9043 8.47933 21.587 8.4 21.223 8.4C20.7937 8.4 20.425 8.49333 20.117 8.68C19.8183 8.85733 19.585 9.11867 19.417 9.464C19.2583 9.8 19.1743 10.2153 19.165 10.71C19.165 11.214 19.2443 11.6433 19.403 11.998C19.5617 12.3527 19.795 12.6233 20.103 12.81C20.411 12.9967 20.7843 13.09 21.223 13.09C21.6617 13.09 22.049 12.9967 22.385 12.81C22.721 12.614 23.0057 12.32 23.239 11.928L24.149 12.502C23.813 13.0433 23.3883 13.454 22.875 13.734C22.371 14.0047 21.7737 14.14 21.083 14.14Z" fill="#333333"/>
<path d="M238 42L244 48L250 42" stroke="black" stroke-width="1.5" stroke-linecap="square"/>
</svg>
